<svg width="630" height="175" viewBox="0 0 630 175" fill="none" xmlns="http://www.w3.org/2000/svg">
<path d="M45.78 173H0.93L60.5 0.959994H109.03L169.06 173H123.75L89.48 57.77L83.96 35.46L78.21 57.77L45.78 173ZM38.19 141.03L43.02 111.13H121.45L126.05 141.03H38.19ZM212.205 174.248C206.693 174.248 201.415 173.832 196.371 173C191.379 172.22 187.037 171.284 183.345 170.192C179.653 169.048 177.053 168.008 175.545 167.072L179.133 144.452C181.057 145.544 183.657 146.662 186.933 147.806C190.209 148.95 193.823 149.938 197.775 150.77C201.779 151.55 205.809 151.94 209.865 151.94C215.325 151.94 219.277 151.16 221.721 149.6C224.217 148.04 225.465 145.544 225.465 142.112C225.465 139.616 224.711 137.51 223.203 135.794C221.695 134.026 219.199 132.232 215.715 130.412C212.283 128.592 207.681 126.304 201.909 123.548C197.021 121.208 192.523 118.452 188.415 115.28C184.307 112.056 181.005 108.208 178.509 103.736C176.013 99.212 174.765 93.856 174.765 87.668C174.765 82.364 175.753 77.736 177.729 73.784C179.757 69.78 182.591 66.452 186.231 63.8C189.923 61.148 194.291 59.172 199.335 57.872C204.379 56.52 209.969 55.844 216.105 55.844C224.841 55.844 231.965 56.65 237.477 58.262C242.989 59.874 246.785 61.304 248.865 62.552L244.341 84.236C242.001 82.416 238.387 80.752 233.499 79.244C228.663 77.684 223.697 76.904 218.601 76.904C214.961 76.904 211.971 77.32 209.631 78.152C207.291 78.932 205.549 80.05 204.405 81.506C203.261 82.962 202.689 84.652 202.689 86.576C202.689 88.916 203.365 90.996 204.717 92.816C206.121 94.584 208.279 96.352 211.191 98.12C214.155 99.836 217.977 101.76 222.657 103.892C227.649 106.128 232.095 108.416 235.995 110.756C239.947 113.096 243.301 115.644 246.057 118.4C248.813 121.156 250.893 124.302 252.297 127.838C253.753 131.322 254.481 135.352 254.481 139.928C254.481 146.844 252.843 152.876 249.567 158.024C246.343 163.172 241.585 167.176 235.293 170.036C229.001 172.844 221.305 174.248 212.205 174.248ZM289.836 173.78L259.416 57.092H288.432L300.6 121.832L305.592 159.74H302.628L308.4 121.832L323.688 57.092H350.052L365.808 121.832L372.048 159.896H368.616L373.608 121.832L385.62 57.092H413.544L382.968 173.78H354.42L339.6 113.252L331.956 63.02H339.444L332.58 113.252L317.916 173.78H289.836ZM438.512 173H408.092L448.496 56.312H481.412L522.128 173H491.396L468.152 94.844L464.408 79.712L460.508 94.844L438.512 173ZM433.364 151.316L436.64 131.036H489.836L492.956 151.316H433.364ZM562.203 173H533.187V57.092C534.279 57.092 535.371 57.092 536.463 57.092C537.607 57.092 538.725 57.092 539.817 57.092C540.961 57.092 542.079 57.092 543.171 57.092C547.331 57.092 552.115 56.884 557.523 56.468C562.983 56.052 569.847 55.844 578.115 55.844C583.211 55.844 588.307 56.416 593.403 57.56C598.499 58.652 603.153 60.576 607.365 63.332C611.577 66.036 614.957 69.78 617.505 74.564C620.053 79.348 621.327 85.38 621.327 92.66C621.327 100.564 620.001 107.09 617.349 112.238C614.749 117.334 611.135 121.286 606.507 124.094C601.879 126.85 596.523 128.696 590.439 129.632C588.411 129.996 586.383 130.36 584.355 130.724C582.327 131.088 579.623 131.4 576.243 131.66C572.915 131.868 568.235 131.972 562.203 131.972V173ZM562.203 111.848C563.243 112.004 564.647 112.134 566.415 112.238C568.183 112.342 569.977 112.42 571.797 112.472C573.617 112.472 575.151 112.472 576.399 112.472C582.327 112.472 586.643 110.6 589.347 106.856C592.051 103.06 593.403 98.484 593.403 93.128C593.403 90.268 592.883 87.564 591.843 85.016C590.855 82.416 588.983 80.31 586.227 78.698C583.523 77.086 579.623 76.28 574.527 76.28C572.447 76.28 570.315 76.41 568.131 76.67C565.999 76.878 564.023 77.216 562.203 77.684V111.848ZM597.147 173C596.523 172.22 595.925 171.284 595.353 170.192C594.833 169.048 594.027 167.228 592.935 164.732C591.375 161.248 589.971 157.608 588.723 153.812C587.475 149.964 586.201 146.376 584.901 143.048C583.653 139.72 582.197 137.016 580.533 134.936C578.869 132.804 576.815 131.712 574.371 131.66L581.079 126.356L599.487 123.86C602.399 125.16 604.921 127.292 607.053 130.256C609.237 133.22 611.213 136.652 612.981 140.552C614.801 144.4 616.595 148.43 618.363 152.642C620.131 156.802 622.107 160.78 624.291 164.576C625.071 165.98 625.877 167.384 626.709 168.788C627.541 170.192 628.347 171.596 629.127 173H597.147Z" fill="#0075A9"/>
</svg>
